<svg width="512" height="512" viewBox="0 0 512 512" fill="none" xmlns="http://www.w3.org/2000/svg">
  <rect width="512" height="512" rx="144" fill="url(#paint0_linear_4_8)"/>
  <circle cx="256" cy="256" r="168" fill="rgba(255,255,255,0.06)"/>
  <path d="M154 256C154 195.249 203.249 146 264 146C302.804 146 336.912 166.091 356.546 196.438L313.935 223.221C304.237 208.195 285.522 198.25 264 198.25C232.112 198.25 206.25 224.112 206.25 256C206.25 287.888 232.112 313.75 264 313.75C285.522 313.75 304.237 303.805 313.935 288.779L356.546 315.562C336.912 345.909 302.804 366 264 366C203.249 366 154 316.751 154 256Z" fill="white"/>
  <path d="M348 128L357.281 150.719L380 160L357.281 169.281L348 192L338.719 169.281L316 160L338.719 150.719L348 128Z" fill="#7EE787"/>
  <defs>
    <linearGradient id="paint0_linear_4_8" x1="60" y1="44" x2="448" y2="466" gradientUnits="userSpaceOnUse">
      <stop stop-color="#112B43"/>
      <stop offset="0.48" stop-color="#153E63"/>
      <stop offset="1" stop-color="#0A1520"/>
    </linearGradient>
  </defs>
</svg>
