<?xml version="1.0" encoding="UTF-8" standalone="no"?><svg xmlns="http://www.w3.org/2000/svg" xmlns:xlink="http://www.w3.org/1999/xlink" width="100%" viewBox="194.0 200.0 207.0 320.0" fill="none" stroke="none" version="1.0" height="100%"><defs id="defs1"><g id="Jacket" stroke="none"><path clip-rule="evenodd" id="Jacket_only_Path" d="m 355.731,506.441 -5.63036,-137.42497 17.47055,-39.34793 c 7.70411,1.66921 -24.31769,-8.49648 -44.9862,-16.1111 -0.049,-12.748 -13.798,-19.679 -24.829,-19.679 -11.026,0 -24.784,6.938 -24.83,19.68 l -44.997,16.58 c 0.49263,2.49471 -6.67185,-16.12099 17.14668,38.54534 L 239.779,506.442 c 18.428,7.193 38.345,9.65 57.977,9.65 19.572,0 39.614,-2.483 57.975,-9.651 z" fill-rule="evenodd"/></g><g id="Sleeves" stroke="none"><path d="M367.582,330.111l-17.986,39.438l6.512,145.262l30.818,4.365l12.846-96.311 C394.809,381.977,391.371,364.205,367.582,330.111L367.582,330.111z M227.929,330.111l17.985,39.438l-6.511,145.262 l-30.818,4.365l-12.846-96.311C200.703,381.977,204.14,364.205,227.929,330.111L227.929,330.111z" id="Sleeves_Path"/></g><g id="Shadows"><path fill="none" clip-rule="evenodd" d="M297.755,475.947c-2.133,0-3.874,1.762-3.874,3.922 s1.741,3.922,3.874,3.922s3.875-1.762,3.875-3.922S299.889,475.947,297.755,475.947L297.755,475.947z M297.756,347.598 c2.133,0,3.875,1.762,3.875,3.922s-1.741,3.922-3.875,3.922c-2.134,0-3.875-1.762-3.875-3.922S295.623,347.598,297.756,347.598 L297.756,347.598z M297.755,443.861c-2.133,0-3.874,1.76-3.874,3.92s1.741,3.922,3.874,3.922s3.875-1.762,3.875-3.922 S299.889,443.861,297.755,443.861L297.755,443.861z M297.755,411.773c-2.133,0-3.874,1.762-3.874,3.922s1.741,3.922,3.874,3.922 s3.875-1.762,3.875-3.922S299.889,411.773,297.755,411.773L297.755,411.773z M297.755,379.686c-2.133,0-3.874,1.762-3.874,3.922 s1.741,3.922,3.874,3.922s3.875-1.762,3.875-3.922S299.889,379.686,297.755,379.686L297.755,379.686z" id="Buttons_1_" fill-rule="evenodd" stroke="none"/><path clip-rule="evenodd" fill="black" opacity="0.10" d="M290.659,337.227c1.546,0.695,3.164,1.301,4.841,1.803 c0.781,0.234,1.534,0.518,2.254,0.846c0.721-0.328,1.474-0.611,2.255-0.846c1.678-0.502,3.295-1.107,4.842-1.803l0.002-12.221 c0.001-7.407,6.637-10.185,9.219-15.557c-4.369-3.027-10.08-4.865-16.317-4.865s-11.948,1.838-16.318,4.865 c2.582,5.372,9.218,8.149,9.22,15.557L290.659,337.227L290.659,337.227z" id="Under_Collar" fill-rule="evenodd" stroke="none"/><path fill="#666666" opacity="0.25" clip-rule="evenodd" d="M289.718,378.5 c0,45.549,0.001,91.098-0.018,136.646 M367.716,331.613l-4.128,9.037c-0.449,0.986-1.794,0.363-1.334-0.646l4.314-9.465 l-43.479-16.021c-0.087,1.86-0.383,3.54-0.901,5.277c-0.323,1.081-1.688,0.576-1.393-0.476c0.531-1.887,0.828-3.847,0.828-5.867 c-0.093-3.3-0.983-6.293-2.875-9.01c-1.152-1.653-2.562-3.075-4.068-4.266c0.652,1.413,1.025,3.05,1.025,4.789 c0,4.604-2.576,7.392-5.185,10.215c-2.47,2.673-4.972,5.381-4.973,9.722l0.001,11.17c1.945-0.947,3.756-2.057,5.426-3.275 c0.956-0.697,1.717,0.574,0.863,1.219c-3.371,2.547-7.217,4.418-11.617,5.736c-5.508,1.65-10.503,6.363-10.503,12.516 c0,8.744,0,17.488,0,26.232c0,45.549,0.001,91.098-0.018,136.646c2.684,0.107,5.37,0.164,8.056,0.164 c13.997,0,27.227-1.449,38.918-4.016c6.641-1.457,12.784-3.273,18.288-5.389l-6.086-136.033c-0.049-1.086,1.429-1.18,1.479-0.084 l6.471,144.363l29.464,4.174l12.732-95.457c-2.472-20.357-4.566-34.965-8.992-48.695 C385.693,360.725,379.107,348.072,367.716,331.613L367.716,331.613z M297.756,346.842c2.007,0,3.808,1.352,4.408,3.277 c1.298,0.127,2.283,0.707,2.283,1.4s-0.985,1.273-2.283,1.4c-0.6,1.924-2.399,3.275-4.408,3.275c-2.529,0-4.62-2.117-4.62-4.676 C293.137,348.959,295.228,346.842,297.756,346.842L297.756,346.842z M297.756,348.352c-1.712,0-3.129,1.436-3.129,3.168 s1.417,3.166,3.129,3.166c1.71,0,3.128-1.434,3.128-3.166S299.468,348.352,297.756,348.352L297.756,348.352z M302.164,382.207 c1.298,0.127,2.283,0.707,2.283,1.4s-0.985,1.273-2.283,1.4c-0.6,1.924-2.4,3.275-4.409,3.275c-2.528,0-4.62-2.117-4.62-4.676 c0-2.561,2.091-4.678,4.62-4.678C299.764,378.93,301.564,380.281,302.164,382.207L302.164,382.207z M302.164,414.293 c1.298,0.127,2.283,0.709,2.283,1.402c0,0.691-0.985,1.271-2.283,1.398c-0.6,1.926-2.4,3.277-4.409,3.277 c-2.528,0-4.62-2.117-4.62-4.676c0-2.561,2.091-4.678,4.62-4.678C299.764,411.018,301.564,412.369,302.164,414.293L302.164,414.293 z M302.164,446.381c1.298,0.127,2.283,0.707,2.283,1.4s-0.985,1.273-2.283,1.4c-0.6,1.926-2.4,3.277-4.409,3.277 c-2.528,0-4.62-2.117-4.62-4.678c0-2.559,2.091-4.676,4.62-4.676C299.764,443.105,301.564,444.457,302.164,446.381L302.164,446.381 z M302.164,478.469c1.298,0.127,2.283,0.707,2.283,1.4s-0.985,1.273-2.283,1.4c-0.6,1.924-2.4,3.277-4.409,3.277 c-2.528,0-4.62-2.117-4.62-4.678c0-2.559,2.091-4.676,4.62-4.676C299.764,475.193,301.564,476.545,302.164,478.469L302.164,478.469 z M297.755,380.439c-1.711,0-3.128,1.436-3.128,3.168s1.417,3.166,3.128,3.166s3.129-1.434,3.129-3.166 S299.467,380.439,297.755,380.439L297.755,380.439z M297.755,412.527c-1.711,0-3.128,1.434-3.128,3.168 c0,1.732,1.417,3.166,3.128,3.166s3.129-1.434,3.129-3.166C300.885,413.961,299.467,412.527,297.755,412.527L297.755,412.527z M297.755,444.615c-1.711,0-3.128,1.434-3.128,3.166s1.417,3.168,3.128,3.168s3.129-1.434,3.129-3.168 C300.885,446.049,299.467,444.615,297.755,444.615L297.755,444.615z M297.755,476.703c-1.711,0-3.128,1.434-3.128,3.166 s1.417,3.168,3.128,3.168s3.129-1.436,3.129-3.168S299.467,476.703,297.755,476.703L297.755,476.703z M274.717,319.32 c0.316,1.088-1.041,1.649-1.394,0.468c-0.521-1.747-0.812-3.399-0.9-5.27l-43.479,16.021l4.312,9.461 c0.432,0.947-0.853,1.693-1.337,0.635l-4.124-9.02c-11.391,16.457-17.978,29.109-22.313,42.559 c-4.425,13.73-6.521,28.338-8.993,48.695l12.732,95.457l29.465-4.174l6.474-144.322c0.051-1.141,1.522-1.059,1.473,0.059 l-6.083,136.018c5.504,2.115,11.647,3.932,18.288,5.389c8.997,1.975,18.904,3.287,29.372,3.787 c0.019-45.527,0.018-91.055,0.017-136.582c0-8.744,0-17.488,0-26.232c0-5.27,3.331-9.793,7.715-12.307 c-4.519-1.555-8.386-3.025-12.244-5.932c-0.859-0.646-0.05-1.889,0.837-1.234c1.665,1.229,3.482,2.33,5.429,3.277v-11.17 c-0.001-4.341-2.502-7.049-4.973-9.722c-2.608-2.823-5.184-5.611-5.184-10.215c0-1.739,0.374-3.375,1.026-4.789 c-1.507,1.19-2.913,2.616-4.069,4.266c-1.918,2.736-2.876,5.845-2.875,9.01C273.889,315.472,274.169,317.438,274.717,319.32 L274.717,319.32z M387.663,519.275c-0.05,0.375-0.47,0.699-0.839,0.646c-10.273-1.453-20.54-2.951-30.818-4.365 c-0.302-0.043-0.631-0.408-0.644-0.715l-0.329-7.354c-5.458,2.068-11.517,3.85-18.045,5.281 c-11.795,2.588-25.132,4.049-39.232,4.049c-12.86,0-26.771-1.314-39.232-4.049c-6.528-1.432-12.587-3.213-18.044-5.281l-0.33,7.354 c-0.014,0.307-0.342,0.672-0.644,0.715l-30.818,4.365c-0.37,0.053-0.789-0.271-0.839-0.646L195,422.773 c2.486-20.484,4.593-35.184,9.067-49.066c4.46-13.838,11.262-26.816,23.117-43.832l0.492-0.471 c14.91-5.494,29.82-10.987,44.73-16.481c0.116-3.644,1.338-6.759,3.141-9.348c9.671-13.89,34.744-13.896,44.418,0 c1.803,2.588,3.025,5.704,3.141,9.348l44.73,16.481l0.492,0.471c11.854,17.016,18.656,29.994,23.116,43.832 c4.475,13.883,6.581,28.582,9.067,49.066C400.51,422.764,395.518,460.104,387.663,519.275L387.663,519.275z M310.443,297.498 c-3.635-1.921-8.031-2.891-12.688-2.891c-4.657,0-9.052,0.97-12.688,2.891c-2.601,1.374-3.77,4.616-3.77,7.467 c0,1.221,0.222,2.308,0.596,3.304c4.7-3.023,10.316-4.475,15.862-4.475c5.545,0,11.164,1.452,15.862,4.475 c0.374-0.996,0.596-2.083,0.596-3.304C314.214,302.113,313.045,298.872,310.443,297.498L310.443,297.498z M304.055,336.758 l0.002-11.856c0.001-4.938,2.705-7.864,5.375-10.754c1.32-1.43,2.634-2.851,3.549-4.504c-4.494-2.94-9.899-4.34-15.225-4.34 c-5.324,0-10.732,1.399-15.224,4.34c0.914,1.654,2.227,3.074,3.548,4.504c2.67,2.89,5.374,5.816,5.375,10.754l0.002,11.856 c2.063,0.893,4.246,1.406,6.298,2.295C299.809,338.164,301.991,337.65,304.055,336.758L304.055,336.758z" id="Border_1_jacket" fill-rule="evenodd" stroke="none"/><!-- use fill-opacity instead of opacity as that leads (inexplicably) to enormous PDF files --><path fill-opacity="0.05" fill="black" fill-rule="evenodd" id="Shadows_1_" d="M336.836,458.27 c-1.176,4.846,11.593-4.963,9.92,1.875c-2.154,8.818-13.939,7.678-11.781,11.645c0.855,1.572,17.568,5.195,10.977,12.363 c-5.547,6.031-12.848-8.158-19.584-5.648c-7.461,2.781-23.845-0.609-13.682-9.342c4.383-3.764-3.36-6.068-2.781-16.732 c0.193-3.551-1.632-7.105-1.632-10.072v-75.199h-1.999v138.674c2.647,2.143,6.465-0.521,7.676-2.717 c5.97-10.82-14.525-9.828,3.237-17.926c6.11-2.787,21.852,3.779,19.204,5.943c-2.913,2.381-7.788,0.795-9.312,4.289 c-6.198,14.217,34.853-11.002,14.136,7.693c-0.347,0.313,6.197,0.377,6.633,2.848c0.189,1.076-0.607,2.623-1.959,3.42 c3.274-0.955,6.612-1.707,9.798-2.951c0.015-0.006,0.03-0.012,0.044-0.018h0.001l0.376,8.396l3.704,0.523l1.968-16.588 c6.418-0.418,12.393-1.451,17.607-2.961l-1.851-1.553c-0.938,0.252-1.9,0.488-2.886,0.707c-2.266,0.504-4.65,0.922-7.132,1.244 c-20.317-28.975,9.55-59.113,4.718-74.27c-1.631-5.115-16.633,33.631-13.366,6.037c1.536-12.975,3.289-18.865,2.587-31.043 c-0.133-2.299-5.509,0.146-5.605-2.156c-0.379-9.109,8.811-26.852,7.33-30.611c-0.944-2.396-27.037,11.77-25.777,16.334 c0.928,3.369,3.631,3.824,4.734,7.139c0.898,2.697-3.451,4.918-3.451,7.762c0,2.977,7.248-0.145,6.908,2.811 c-1.175,10.205-12.1,21.014-1.355,26.832C349.515,427.875,338.045,453.287,336.836,458.27L336.836,458.27z M301.147,350.209 c0.54,0.891,0.86,1.996,0.86,3.195c0,2.924-1.91,5.309-4.251,5.309c-2.342,0-4.252-2.385-4.252-5.309 c0-1.199,0.321-2.305,0.861-3.195c0.662,1.637,1.935,2.748,3.391,2.748S300.486,351.846,301.147,350.209L301.147,350.209z M227.993,496.184c-2.481-0.322-4.867-0.74-7.133-1.244c-0.984-0.219-1.946-0.455-2.885-0.707l-1.85,1.553 c5.214,1.51,11.189,2.543,17.606,2.961l1.968,16.588l3.704-0.523l0.376-8.396c0.002,0,0.004,0.002,0.006,0.002 c0.015,0.008,0.033,0.027,0.04,0.016c2.73,1.057,6.229,1.477,9.793,2.518c-1.35-0.797-2.145-1.912-1.955-2.986 c0.296-1.676,2.881-2.629,5.754-2.123c0.887,0.156,2.086-0.076,0.879-1.166c-13.87-12.531,7.282-8.416,7.607-16.758 s-7.411,3.6-12.345-1.764c-5.682-6.178,21.381-13.563,25.802-12.371c15.583,4.199-18.616,11.236,0.756,14.291 c18.107,2.852-0.924,5.785-7.52,11.439c3.065,5.189,5.582,1.514,8.653,5.604c2.468,3.289,0.552,3.514-1.217,5.729 c0.733,0.686,6.522,2.428,6.385,3.205c-0.175,0.994-4.996,1.732-6.364,2.064c3.949,0.445,8.008,0.771,12.154,0.969 c0.022-54.271,0.017-108.543,0.017-162.814c0-7.355-4.072,13.121-4.23,14.525c-0.709,6.311,0.806,10.809,0.714,17.146 c-0.083,5.775-1.24,7.623-1.24,13.4c0,4.777,1.317,13.938,1.24,18.713c-0.097,6.078-1.892,7.225-1.806,13.303 c0.167,11.854,3.179,17.975-0.398,29.875c-6.318,13.697-2.832,3.309-21.635,8.844c-31.653,9.32,10.077-11.939-6.508-14.547 c-2.049-0.322-12.311-16.531-1.037-10.76s-3.905-23.252-2.918-23.785c9.626-5.213,4.177-8.877,0.305-13.477 c-1.571-1.865,4.386-10.709,4.386-10.994c0-2.844-5.644-5.926-4.745-8.623c1.104-3.316,6.825-2.045,7.753-5.414 c1.242-4.504-24.664-19.166-25.778-16.334c-1.481,3.76,7.709,21.502,7.329,30.611c-0.103,2.471-5.465-0.316-5.607,2.209 c-0.684,12.143,1.056,18.035,2.59,30.99c3.267,27.594-11.735-11.152-13.366-6.037C218.443,437.07,248.31,467.209,227.993,496.184 L227.993,496.184z M282.632,299.874c3.329,4.733,9.727-0.533,15.124-0.533c5.396,0,11.795,5.267,15.124,0.533 c0.909,1.508,1.334,3.371,1.334,5.091c0,1.221-0.222,2.308-0.596,3.304c-4.698-3.023-10.317-4.475-15.862-4.475 c-5.546,0-11.162,1.452-15.862,4.475c-0.375-0.996-0.596-2.083-0.596-3.304C281.297,303.245,281.724,301.382,282.632,299.874 L282.632,299.874z M381.29,364.572c1.807,0.451,4.174,0.158,6.065,0.158c-0.387-0.939-0.787-1.879-1.203-2.82 c0.001,0.002,0.002,0.002,0.004,0.004c-0.082-0.184-0.164-0.369-0.246-0.555c-0.002-0.002-0.004-0.006-0.006-0.008 c-4.852-10.852-11.43-21.352-18.225-31.1c-2.692,5.979-7.123,12.385-6.279,18.725c0.456,3.42,6.19,0.111,9.617,0.523 C381.978,350.82,369.287,361.57,381.29,364.572L381.29,364.572z M214.222,364.572c-1.807,0.451-4.174,0.158-6.066,0.158 c0.388-0.939,0.788-1.879,1.204-2.82c-0.001,0.002-0.002,0.002-0.004,0.004c0.082-0.184,0.164-0.369,0.246-0.555 c0.002-0.002,0.004-0.006,0.006-0.008c4.851-10.852,11.43-21.352,18.225-31.1c2.692,5.979,7.124,12.385,6.279,18.725 c-0.456,3.42-6.19,0.111-9.617,0.523C213.534,350.82,226.225,361.57,214.222,364.572L214.222,364.572z M294.364,382.262 c-0.54,0.891-0.861,1.998-0.861,3.195c0,2.924,1.911,5.309,4.252,5.309c2.342,0,4.252-2.385,4.252-5.309 c0-1.197-0.321-2.305-0.861-3.195c-0.661,1.637-1.934,2.748-3.391,2.748C296.299,385.01,295.026,383.898,294.364,382.262 L294.364,382.262z M294.364,414.35c-0.54,0.891-0.861,1.996-0.861,3.195c0,2.924,1.911,5.309,4.252,5.309 c2.342,0,4.252-2.385,4.252-5.309c0-1.199-0.322-2.305-0.861-3.195c-0.662,1.637-1.934,2.748-3.391,2.748 C296.299,417.098,295.026,415.986,294.364,414.35L294.364,414.35z M294.364,446.438c-0.54,0.891-0.861,1.996-0.861,3.195 c0,2.924,1.911,5.309,4.252,5.309c2.342,0,4.252-2.385,4.252-5.309c0-1.199-0.322-2.305-0.861-3.195 c-0.662,1.637-1.934,2.748-3.391,2.748C296.299,449.186,295.026,448.074,294.364,446.438L294.364,446.438z M294.364,478.525 c-0.54,0.889-0.861,1.996-0.861,3.195c0,2.924,1.911,5.309,4.252,5.309c2.342,0,4.252-2.385,4.252-5.309 c0-1.199-0.322-2.307-0.861-3.195c-0.661,1.635-1.934,2.748-3.391,2.748C296.299,481.273,295.025,480.16,294.364,478.525 L294.364,478.525z" stroke="none" clip-rule="evenodd"/></g><g id="Cap" stroke="none"><path d="m 327.24902,246.16556 c -9.47541,30.72765 -52.16231,30.28532 -61.60103,-0.34198 l 0.0206,9.39318 c 0.0377,17.23301 12.80096,29.27139 30.61096,29.27139 17.81,0 31.97103,-13.53876 31.30849,-29.93415 z" id="Cap_peak"/><circle r="32" id="Cap_crown" cx="296.5" cy="237"/></g><g id="Cap_shadows"><path clip-rule="evenodd" fill="black" d="m 328.338,239.651 c 0,18.54 -14.15551,32.64405 -31.72051,32.64405 -17.564,0 -32.05949,-14.10405 -32.05949,-32.64405 0,-1.042 0,-2.079 0,-3.117 l 0.785,0 c 0.188,6.673 11.511,17.163 15.874,18.691 1.472,0.515 1.058,2.89 2.761,2.766 3.395,-0.248 4.719,-4.721 7.439,-3.51 3.407,1.517 3.33,4.856 4.389,7.484 0.16,0.397 1.124,0.397 1.284,0 1.06,-2.628 0.981,-5.967 4.388,-7.484 2.721,-1.211 4.045,3.262 7.439,3.51 1.703,0.124 1.289,-2.251 2.762,-2.766 4.362,-1.529 15.688,-12.019 15.875,-18.691 l 0.783,0 c 0.001,1.038 0.001,2.075 0.001,3.117 z m -26.677,-6.802 c 0.515,0.974 0.811,2.104 0.811,3.307 0,3.643 -2.706,6.614 -6.023,6.614 -3.318,0 -6.023,-2.971 -6.023,-6.614 0,-1.203 0.296,-2.333 0.811,-3.307 1.044,1.974 2.991,3.307 5.213,3.307 2.222,0 4.167,-1.333 5.211,-3.307 z m 20.48364,35.6809 c -5.31229,7.61976 -12.38226,12.66842 -25.01867,13.87874 -11.86823,-1.29094 -19.89092,-4.21942 -25.86514,-13.87874 6.88532,6.68421 14.36833,10.43006 25.52615,10.27368 12.37853,-0.17349 19.48655,-4.76623 25.18817,-9.9347 z" fill-opacity="0.05" fill-rule="evenodd"/><g id="Cap_Border" opacity="0.25"><circle fill="none" stroke-width="1.5" r="6" cx="296.5" cy="237" stroke="#666666"/><circle fill="none" stroke-width="1.5" r="32" cx="296.5" cy="237" stroke="#666666"/><path fill="none" stroke-width="1.5" d="m 265.66949,245.48759 c -2.25449,25.90406 11.65229,39.43198 32.66543,39.0867 20.75963,-0.34111 31.79711,-19.15346 28.85086,-39.00195" stroke="#666666"/></g></g></defs><g><title>White</title><rect fill="white" x="194" width="207" height="320" y="200" stroke="none"/><use x="0" y="0" fill="#FFFFFF" xlink:href="#Jacket" xlink:type="simple" xlink:actuate="onLoad" xlink:show="embed"/><use x="0" y="0" fill="#FFFFFF" xlink:href="#Sleeves" xlink:type="simple" xlink:actuate="onLoad" xlink:show="embed"/><use x="0" y="0" fill="none" xlink:href="#Shadows" xlink:type="simple" xlink:actuate="onLoad" stroke="none" xlink:show="embed"/><g transform="translate(0.0 -20.0) scale(1.0 1.085)"><use x="0" y="0" fill="#FFFFFF" xlink:href="#Cap" xlink:type="simple" xlink:actuate="onLoad" xlink:show="embed"/><use x="0" y="0" fill="none" xlink:href="#Cap_shadows" xlink:type="simple" xlink:actuate="onLoad" stroke="none" xlink:show="embed"/></g></g></svg>